<svg width="423" height="85" viewBox="0 0 423 85" fill="none" xmlns="http://www.w3.org/2000/svg">
<path d="M56.9414 53.6573L74.7348 35.8639L102.266 63.8446L84.0861 63.4577L84.473 81.638L56.9414 53.6573Z" fill="#F5913D"/>
<path fill-rule="evenodd" clip-rule="evenodd" d="M53.1306 67.5148L14.5729 24.8598L23.6806 11.4764H82.5805L91.6882 24.8598L82.3647 35.1741L90.4982 43.2996L106.261 25.8617L88.6616 0H17.5995L0 25.8617L45.3913 76.0765L53.1306 84.6382L60.8698 76.0765L65.4885 70.9671L57.3549 62.8415L53.1306 67.5148Z" fill="white"/>
<path d="M158.084 43.2291H172.939C172.524 44.8873 171.902 46.4303 171.073 47.8582C170.29 49.2862 169.254 50.5529 167.964 51.6583C166.721 52.7178 165.247 53.5469 163.542 54.1457C161.838 54.7445 159.903 55.0439 157.739 55.0439C155.343 55.0439 153.109 54.6293 151.037 53.8002C149.01 52.9711 147.236 51.7735 145.716 50.2074C144.196 48.6413 142.999 46.7758 142.124 44.6109C141.295 42.446 140.88 40.0508 140.88 37.4253C140.88 34.7998 141.318 32.4046 142.193 30.2397C143.068 28.0748 144.265 26.2323 145.786 24.7123C147.306 23.1922 149.079 22.0177 151.106 21.1886C153.178 20.3595 155.389 19.9449 157.739 19.9449C161.101 19.9449 163.957 20.6589 166.306 22.0868C168.701 23.4686 170.567 25.3111 171.902 27.6142L178.535 23.1232C177.107 20.8661 175.38 18.9546 173.353 17.3885C171.327 15.7763 169.001 14.5557 166.375 13.7266C163.796 12.8514 160.917 12.4138 157.739 12.4138C154.1 12.4138 150.714 13.0357 147.582 14.2793C144.496 15.4769 141.801 17.1812 139.498 19.3922C137.241 21.6031 135.468 24.2517 134.178 27.3378C132.934 30.3779 132.312 33.7404 132.312 37.4253C132.312 41.1102 132.934 44.4958 134.178 47.5819C135.422 50.668 137.172 53.3396 139.429 55.5966C141.732 57.8536 144.427 59.604 147.513 60.8476C150.599 62.0452 153.961 62.644 157.6 62.644C161.47 62.644 164.901 61.9531 167.895 60.5713C170.889 59.1433 173.399 57.2088 175.426 54.7675C177.453 52.3262 178.973 49.5395 179.986 46.4073C181 43.2291 181.46 39.8666 181.368 36.3198H158.084V43.2291Z" fill="white"/>
<path d="M202.859 62.2986C206.544 62.2986 209.699 61.5846 212.324 60.1567C214.996 58.6827 217.161 56.5178 218.819 53.662L212.324 51.1056C211.311 52.8099 210.044 54.0766 208.524 54.9057C207.004 55.7348 205.231 56.1493 203.204 56.1493C201.269 56.1493 199.634 55.7348 198.298 54.9057C196.963 54.0305 195.949 52.8099 195.258 51.2438C194.567 49.6316 194.222 47.697 194.222 45.44C194.222 43.6897 194.429 42.1696 194.844 40.8799C195.258 39.5441 195.834 38.4386 196.571 37.5635C197.354 36.6422 198.275 35.9513 199.335 35.4907C200.44 35.0301 201.707 34.7998 203.135 34.7998C204.701 34.7998 206.06 35.1452 207.211 35.8362C208.409 36.5271 209.33 37.4944 209.975 38.738C210.666 39.9817 211.011 41.4557 211.011 43.16C211.011 43.4824 210.919 43.8739 210.735 44.3345C210.597 44.7952 210.436 45.1636 210.251 45.44L212.601 42.2618H191.044V47.4437H219.026C219.026 47.2595 219.026 46.9831 219.026 46.6146C219.072 46.2 219.095 45.7855 219.095 45.3709C219.095 41.9624 218.45 39.0605 217.161 36.6653C215.917 34.224 214.121 32.3585 211.772 31.0688C209.422 29.7791 206.567 29.1342 203.204 29.1342C200.671 29.1342 198.391 29.5257 196.364 30.3088C194.337 31.0918 192.587 32.2203 191.113 33.6943C189.685 35.1222 188.579 36.8726 187.796 38.9453C187.013 40.972 186.622 43.2291 186.622 45.7164C186.622 49.0328 187.29 51.9347 188.626 54.422C189.961 56.9094 191.85 58.8439 194.291 60.2258C196.732 61.6076 199.588 62.2986 202.859 62.2986Z" fill="white"/>
<path d="M271.681 41.4327C271.681 38.8071 271.312 36.5962 270.575 34.7998C269.838 32.9573 268.733 31.5524 267.259 30.5851C265.785 29.6178 263.896 29.1342 261.593 29.1342C259.474 29.1342 257.563 29.6178 255.858 30.5851C254.154 31.5524 252.749 32.9573 251.644 34.7998C251.183 33.5561 250.515 32.5197 249.64 31.6906C248.811 30.8615 247.798 30.2397 246.6 29.8251C245.402 29.3645 244.021 29.1342 242.454 29.1342C241.119 29.1342 239.875 29.3415 238.723 29.756C237.618 30.1245 236.628 30.7003 235.753 31.4833C234.923 32.2664 234.186 33.2567 233.542 34.4543V29.8251H226.218V61.6076H233.542V42.2618C233.542 40.7417 233.795 39.452 234.302 38.3926C234.808 37.3332 235.522 36.5271 236.443 35.9743C237.411 35.4216 238.539 35.1452 239.829 35.1452C241.027 35.1452 242.017 35.4216 242.8 35.9743C243.583 36.481 244.159 37.2641 244.527 38.3235C244.896 39.3368 245.08 40.6496 245.08 42.2618V61.6076H252.611V42.2618C252.611 40.7417 252.864 39.452 253.371 38.3926C253.924 37.3332 254.661 36.5271 255.582 35.9743C256.549 35.4216 257.678 35.1452 258.968 35.1452C260.165 35.1452 261.155 35.4216 261.939 35.9743C262.722 36.481 263.297 37.2641 263.666 38.3235C264.034 39.3368 264.219 40.6496 264.219 42.2618V61.6076H271.681V41.4327Z" fill="white"/>
<path d="M317.136 13.2429V45.7164L281.83 10.8247V61.6076H289.845V29.1342L325.151 64.0259V13.2429H317.136Z" fill="white"/>
<path d="M332.836 45.7164C332.836 48.9407 333.573 51.8196 335.047 54.3529C336.567 56.8403 338.617 58.7979 341.196 60.2258C343.822 61.6076 346.747 62.2986 349.971 62.2986C353.241 62.2986 356.166 61.6076 358.746 60.2258C361.325 58.7979 363.352 56.8403 364.826 54.3529C366.346 51.8196 367.106 48.9407 367.106 45.7164C367.106 42.446 366.346 39.5672 364.826 37.0798C363.352 34.5925 361.325 32.6579 358.746 31.2761C356.166 29.8482 353.241 29.1342 349.971 29.1342C346.747 29.1342 343.822 29.8482 341.196 31.2761C338.617 32.6579 336.567 34.5925 335.047 37.0798C333.573 39.5672 332.836 42.446 332.836 45.7164ZM340.505 45.7164C340.505 43.7357 340.92 42.0084 341.749 40.5345C342.578 39.0144 343.707 37.8398 345.134 37.0107C346.562 36.1356 348.175 35.698 349.971 35.698C351.767 35.698 353.379 36.1356 354.807 37.0107C356.235 37.8398 357.364 39.0144 358.193 40.5345C359.022 42.0084 359.437 43.7357 359.437 45.7164C359.437 47.697 359.022 49.4474 358.193 50.9674C357.364 52.4414 356.235 53.616 354.807 54.4911C353.379 55.3202 351.767 55.7348 349.971 55.7348C348.175 55.7348 346.562 55.3202 345.134 54.4911C343.707 53.616 342.578 52.4414 341.749 50.9674C340.92 49.4474 340.505 47.697 340.505 45.7164Z" fill="white"/>
<path d="M369.764 29.8251V36.3889H387.797V29.8251H369.764ZM375.084 18.7703V61.6076H382.477V18.7703H375.084Z" fill="white"/>
<path d="M406.762 62.2986C410.447 62.2986 413.602 61.5846 416.228 60.1567C418.899 58.6827 421.064 56.5178 422.723 53.662L416.228 51.1056C415.215 52.8099 413.948 54.0766 412.428 54.9057C410.908 55.7348 409.134 56.1493 407.108 56.1493C405.173 56.1493 403.538 55.7348 402.202 54.9057C400.866 54.0305 399.853 52.8099 399.162 51.2438C398.471 49.6316 398.126 47.697 398.126 45.44C398.126 43.6897 398.333 42.1696 398.747 40.8799C399.162 39.5441 399.738 38.4386 400.475 37.5635C401.258 36.6422 402.179 35.9513 403.238 35.4907C404.344 35.0301 405.611 34.7998 407.039 34.7998C408.605 34.7998 409.963 35.1452 411.115 35.8362C412.313 36.5271 413.234 37.4944 413.879 38.738C414.57 39.9817 414.915 41.4557 414.915 43.16C414.915 43.4824 414.823 43.8739 414.639 44.3345C414.501 44.7952 414.339 45.1636 414.155 45.44L416.504 42.2618H394.947V47.4437H422.93C422.93 47.2595 422.93 46.9831 422.93 46.6146C422.976 46.2 422.999 45.7855 422.999 45.3709C422.999 41.9624 422.354 39.0605 421.064 36.6653C419.821 34.224 418.024 32.3585 415.675 31.0688C413.326 29.7791 410.47 29.1342 407.108 29.1342C404.574 29.1342 402.294 29.5257 400.268 30.3088C398.241 31.0918 396.49 32.2203 395.017 33.6943C393.589 35.1222 392.483 36.8726 391.7 38.9453C390.917 40.972 390.525 43.2291 390.525 45.7164C390.525 49.0328 391.193 51.9347 392.529 54.422C393.865 56.9094 395.753 58.8439 398.195 60.2258C400.636 61.6076 403.492 62.2986 406.762 62.2986Z" fill="white"/>
</svg>
